<svg width="1052" height="282" viewBox="0 0 1052 282" fill="none" xmlns="http://www.w3.org/2000/svg">
<g id="Frame 45">
<g id="Frame 40" clip-path="url(#clip0_112_469)">
<g id="Group 34">
<g id="K">
<path id="K_2" fill-rule="evenodd" clip-rule="evenodd" d="M156.008 72.9946C156.008 72.9944 156.008 72.9943 156.008 72.9942H135.486C135.486 72.9943 135.486 72.9944 135.486 72.9946H156.008ZM58.0013 132.996C37.254 132.997 17.9825 139.315 2.0058 150.133C-12.8082 135.613 -21.9994 115.377 -21.9994 92.9952C-21.9994 86.0889 -21.1243 79.3869 -19.4789 72.9942H-39.9985C-41.3103 79.4568 -41.999 86.1456 -41.999 92.9953C-41.999 120.251 -31.0956 144.959 -13.4128 162.997C-26.6521 176.502 -36.0911 193.747 -39.9992 212.999H-19.4796C-10.5986 178.494 20.7238 152.998 58.0013 152.997V132.996Z" fill="#C9F950"/>
</g>
<g id="D">
<path id="D_2" fill-rule="evenodd" clip-rule="evenodd" d="M149.413 213C167.096 194.962 178 170.253 178 142.997C178 115.742 167.096 91.0329 149.413 72.9947H116.756C116.756 72.9948 116.756 72.9948 116.757 72.9949L58.0001 72.9949V92.9956H58.001L58.001 192.999H58.0001V213H58.001L78.0017 213H116.757C116.756 213 116.756 213 116.756 213H149.413ZM140.451 192.999C151.431 179.303 157.998 161.917 157.998 142.997C157.998 124.078 151.431 106.692 140.451 92.9956L78.0017 92.9956L78.0017 192.999H140.451ZM39.2335 72.995L39.2341 72.9947H6.57956L6.57922 72.995H39.2335Z" fill="#C9F950"/>
</g>
</g>
</g>
<g id="Frame 41" clip-path="url(#clip1_112_469)">
<g id="Group 34_2">
<g id="K_3">
<path id="K_4" fill-rule="evenodd" clip-rule="evenodd" d="M636.992 213.005C636.992 213.006 636.992 213.006 636.992 213.006H657.514C657.514 213.006 657.514 213.006 657.514 213.005H636.992ZM734.999 153.004C755.746 153.003 775.018 146.685 790.994 135.867C805.808 150.387 814.999 170.623 814.999 193.005C814.999 199.911 814.124 206.613 812.479 213.006H832.998C834.31 206.543 834.999 199.854 834.999 193.005C834.999 165.749 824.096 141.041 806.413 123.003C819.652 109.498 829.091 92.2534 832.999 73.0007H812.48C803.599 107.506 772.276 133.002 734.999 133.003V153.004Z" fill="#C9F950"/>
</g>
<g id="D_3">
<path id="D_4" fill-rule="evenodd" clip-rule="evenodd" d="M643.587 72.9998C625.904 91.0379 615 115.747 615 143.003C615 170.258 625.904 194.967 643.587 213.005H676.244C676.244 213.005 676.244 213.005 676.244 213.005H735V193.004H734.999V93.0006H735V72.9999H734.999H714.998H676.243C676.243 72.9999 676.243 72.9998 676.244 72.9998H643.587ZM652.549 93.0006C641.569 106.697 635.002 124.083 635.002 143.002C635.002 161.922 641.569 179.308 652.549 193.004H714.998V93.0006H652.549ZM753.766 213.005L753.766 213.005H786.421L786.42 213.005H753.766ZM786.42 72.9998L786.42 72.9999H753.766L753.766 72.9998H786.42Z" fill="#FAFEE1"/>
</g>
</g>
</g>
<g id="IT">
<path d="M854.324 211.995V71.645H875.336V211.995H854.324ZM931.986 211.995V90.4128H895.674V71.645H989.514V90.4128H953.202V211.995H931.986Z" fill="#FAFEE1"/>
<path d="M854.324 211.995V71.645H875.336V211.995H854.324ZM931.986 211.995V90.4128H895.674V71.645H989.514V90.4128H953.202V211.995H931.986Z" fill="#FAFEE1"/>
<path d="M854.324 211.995V71.645H875.336V211.995H854.324ZM931.986 211.995V90.4128H895.674V71.645H989.514V90.4128H953.202V211.995H931.986Z" fill="#FAFEE1"/>
<path d="M854.324 211.995V71.645H875.336V211.995H854.324ZM931.986 211.995V90.4128H895.674V71.645H989.514V90.4128H953.202V211.995H931.986Z" fill="#FAFEE1"/>
</g>
<g id="REAM">
<path d="M283.624 213.355L264.652 159.296H263.428H232.012L232.012 213.355H211L211 73.0049H265.876C276.62 73.0049 284.712 74.7729 290.152 78.3088C295.592 81.8448 299.128 86.6727 300.76 92.7926C302.528 98.7765 303.412 106.596 303.412 116.252C303.412 126.18 302.188 134.612 299.74 141.548C297.428 148.348 292.532 153.176 285.052 156.032L305.86 213.355H283.624ZM258.532 141.344C265.74 141.344 270.976 140.528 274.24 138.896C277.64 137.264 279.816 134.748 280.768 131.348C281.856 127.948 282.4 122.916 282.4 116.252C282.4 109.452 281.924 104.42 280.972 101.156C280.02 97.7565 277.912 95.2406 274.648 93.6086C271.384 91.9766 266.216 91.1606 259.144 91.1606H232.012V141.344H258.532Z" fill="#FAFEE1"/>
<path d="M331.129 213.355V73.0049L411.913 73.0049V91.1606L352.141 91.1606V133.388L403.753 133.388V151.544L352.141 151.544V195.199L411.913 195.199V213.355H331.129Z" fill="#FAFEE1"/>
<path d="M517.27 213.355L506.662 177.859L456.887 177.859L446.483 213.355H425.267L468.107 73.0049H496.054L538.894 213.355H517.27ZM482.183 94.4246H481.163L461.987 159.908L501.358 159.908L482.183 94.4246Z" fill="#FAFEE1"/>
<path d="M666.96 213.355V106.256H666.144L630.852 213.355H614.328L579.24 106.256H578.424V213.355L558.432 213.355V73.0049H588.216L622.488 178.063H623.712L657.984 73.0049H687.36V213.355H666.96Z" fill="#FAFEE1"/>
</g>
</g>
<defs>
<clipPath id="clip0_112_469">
<rect width="120" height="140" fill="white" transform="translate(178 213) rotate(-180)"/>
</clipPath>
<clipPath id="clip1_112_469">
<rect width="100" height="140" fill="white" transform="translate(735 73)"/>
</clipPath>
</defs>
</svg>
