<svg width="150" height="150" viewBox="0 0 150 150" fill="none" xmlns="http://www.w3.org/2000/svg">
<rect width="150" height="150" fill="white"/>
<g clip-path="url(#clip0_4_867)">
<path fill-rule="evenodd" clip-rule="evenodd" d="M79.9999 80C80 80 80 80 80 80C90.3736 80 100.009 76.8409 107.998 71.4322C115.404 78.692 120 88.8093 120 100C120 103.453 119.562 106.804 118.74 110H129C129.656 106.769 130 103.425 130 100C130 86.3727 124.548 74.0188 115.707 65C122.326 58.2477 127.046 49.626 129 40H118.74C115.975 50.7439 108.858 59.7409 99.38 65C93.6387 68.1858 87.0312 70 80 70C80 70 80 70 79.9999 70V80ZM79.9999 150L79.9604 150H80.0394L79.9999 150Z" fill="black"/>
<path fill-rule="evenodd" clip-rule="evenodd" d="M34.2929 40C25.4516 49.0188 20 61.3727 20 75C20 88.6273 25.4516 100.981 34.2928 110H35H50.6199H70H80V100V50V40H70H50.62H35H34.2929ZM38.7732 50C33.2836 56.848 30 65.5406 30 75C30 84.4595 33.2836 93.152 38.7731 100H70V50H38.7732ZM70 125L69.9605 125H70.0395L70 125Z" fill="black"/>
</g>
<defs>
<clipPath id="clip0_4_867">
<rect width="110" height="70" fill="white" transform="translate(20 40)"/>
</clipPath>
</defs>
</svg>
